<svg xmlns="http://www.w3.org/2000/svg" viewBox="0 0 460 120" fill="none">
  <defs>
    <linearGradient id="lb-grad-dark" x1="0" y1="0" x2="1" y2="1">
      <stop offset="0%" stop-color="#A5B4FC"/>
      <stop offset="100%" stop-color="#6366F1"/>
    </linearGradient>
  </defs>
  <!-- antenna -->
  <line x1="56" y1="14" x2="56" y2="26" stroke="#818CF8" stroke-width="6" stroke-linecap="round"/>
  <circle cx="56" cy="10" r="7" fill="#818CF8"/>
  <!-- speech bubble -->
  <path d="M20 26h72a12 12 0 0 1 12 12v44a12 12 0 0 1-12 12H48l-16 16v-16H20a12 12 0 0 1-12-12V38a12 12 0 0 1 12-12z" fill="url(#lb-grad-dark)"/>
  <!-- doc lines -->
  <rect x="24" y="42" width="64" height="8" rx="4" fill="#FFFFFF" opacity="0.95"/>
  <rect x="24" y="56" width="48" height="8" rx="4" fill="#FFFFFF" opacity="0.8"/>
  <rect x="24" y="70" width="56" height="8" rx="4" fill="#FFFFFF" opacity="0.65"/>
  <!-- wordmark -->
  <text x="122" y="80" font-family="Inter, ui-sans-serif, system-ui, -apple-system, 'Segoe UI', sans-serif" font-size="54" font-weight="700" letter-spacing="-1.5">
    <tspan fill="#A5B4FC">lore</tspan><tspan fill="#F1F5F9">bot</tspan>
  </text>
</svg>
