<svg xmlns="http://www.w3.org/2000/svg" viewBox="0 0 120 120" fill="none">
  <defs>
    <linearGradient id="lb-fav-grad" x1="0" y1="0" x2="1" y2="1">
      <stop offset="0%" stop-color="#818CF8"/>
      <stop offset="100%" stop-color="#4F46E5"/>
    </linearGradient>
  </defs>
  <!-- antenna -->
  <line x1="60" y1="16" x2="60" y2="28" stroke="#4F46E5" stroke-width="7" stroke-linecap="round"/>
  <circle cx="60" cy="11" r="8" fill="#4F46E5"/>
  <!-- speech bubble -->
  <path d="M22 28h76a13 13 0 0 1 13 13v48a13 13 0 0 1-13 13H52l-17 17v-17H22a13 13 0 0 1-13-13V41a13 13 0 0 1 13-13z" fill="url(#lb-fav-grad)"/>
  <!-- doc lines -->
  <rect x="27" y="45" width="66" height="9" rx="4.5" fill="#FFFFFF" opacity="0.95"/>
  <rect x="27" y="60" width="50" height="9" rx="4.5" fill="#FFFFFF" opacity="0.8"/>
  <rect x="27" y="75" width="58" height="9" rx="4.5" fill="#FFFFFF" opacity="0.65"/>
</svg>
